<?xml version="1.0" standalone="no"?>
<!DOCTYPE svg PUBLIC "-//W3C//DTD SVG 20010904//EN"
 "http://www.w3.org/TR/2001/REC-SVG-20010904/DTD/svg10.dtd">
<svg version="1.0" xmlns="http://www.w3.org/2000/svg"
 width="532.000000pt" height="568.000000pt" viewBox="0 0 532.000000 568.000000"
 preserveAspectRatio="xMidYMid meet">

<g transform="translate(0.000000,568.000000) scale(0.100000,-0.100000)"
fill="#000000" stroke="none">
<path d="M2429 5308 c-1 -2 -13 -61 -29 -133 l-27 -130 -25 55 c-14 30 -40 86
-57 124 -27 61 -33 68 -53 62 -13 -3 -33 -6 -45 -6 -13 0 -23 -4 -23 -10 0 -5
8 -10 19 -10 15 0 19 -11 25 -61 3 -34 6 -95 6 -135 0 -59 -3 -75 -17 -83 -26
-14 -14 -18 40 -13 45 4 68 22 27 22 -15 0 -20 7 -21 28 -1 15 -4 73 -8 129
-3 55 -4 100 -1 98 3 -2 32 -62 65 -134 33 -72 63 -131 66 -131 3 0 18 53 33
118 42 181 40 178 60 66 10 -54 20 -111 23 -126 4 -21 2 -28 -11 -28 -9 0 -16
-5 -16 -11 0 -8 11 -9 31 -5 17 3 40 6 50 6 11 0 19 5 19 10 0 6 -8 10 -18 10
-15 0 -21 21 -40 128 -26 149 -26 142 -7 142 8 0 15 5 15 10 0 8 -78 15 -81 8z"/>
<path d="M2945 5266 c-67 -29 -113 -120 -100 -197 9 -49 37 -85 80 -100 19 -7
35 -19 35 -25 0 -27 45 -66 79 -67 44 -3 51 18 10 27 -33 6 -69 32 -69 48 0 4
12 8 26 8 36 0 99 64 113 115 15 55 13 84 -8 131 -14 31 -28 45 -60 57 -49 20
-66 21 -106 3z m88 -18 c31 -16 45 -37 52 -80 9 -50 -17 -137 -50 -168 -33
-31 -87 -32 -116 -4 -50 51 -42 173 16 231 35 35 62 41 98 21z"/>
<path d="M1967 5233 c-26 -8 -45 -18 -42 -23 3 -4 13 -6 23 -3 15 4 22 -10 45
-86 35 -118 35 -163 1 -190 -34 -27 -74 -27 -107 0 -20 15 -35 47 -58 120 -31
97 -31 100 -13 114 19 14 19 14 -1 14 -11 0 -38 -6 -60 -13 -40 -13 -40 -13
-15 -23 21 -9 31 -27 53 -103 20 -66 37 -101 58 -123 27 -27 35 -29 80 -25 63
6 101 34 113 82 8 30 4 56 -20 140 -28 92 -29 104 -15 113 27 18 8 20 -42 6z"/>
<path d="M3290 5201 c0 -5 5 -11 12 -13 8 -3 1 -34 -25 -102 -52 -139 -48
-180 22 -216 96 -49 148 -17 202 124 22 58 40 91 51 94 28 7 21 18 -21 34 -43
17 -61 13 -34 -7 15 -12 14 -20 -17 -100 -43 -110 -70 -145 -115 -145 -18 0
-44 9 -59 21 -36 28 -34 81 8 189 28 73 35 85 54 83 39 -5 24 15 -25 31 -55
19 -53 19 -53 7z"/>
<path d="M1538 5069 c-39 -20 -52 -41 -20 -33 24 7 143 -229 124 -248 -26 -26
-10 -27 38 -3 52 26 66 41 29 32 -18 -5 -28 10 -80 115 -56 114 -58 122 -43
140 23 25 1 24 -48 -3z"/>
<path d="M3679 4881 c-88 -71 -128 -97 -143 -94 -21 4 -21 4 -1 -12 47 -39 99
-53 63 -17 -8 8 -5 16 13 31 13 11 26 20 29 21 3 0 28 -13 56 -30 50 -28 51
-30 45 -62 -5 -22 -13 -33 -24 -32 -28 3 -20 -13 19 -35 44 -26 58 -27 43 -2
-10 14 -6 45 15 147 15 71 29 139 32 150 13 49 -26 32 -147 -65z m93 -24 c-9
-42 -21 -77 -27 -77 -5 0 -27 11 -48 24 l-38 23 63 56 c35 30 64 54 65 53 2
-1 -5 -37 -15 -79z"/>
<path d="M1304 4946 l-28 -23 38 -118 c20 -64 36 -119 33 -121 -2 -2 -49 30
-105 72 l-101 75 -35 -23 c-39 -25 -52 -57 -15 -38 11 7 22 10 23 8 1 -2 33
-54 70 -117 47 -80 64 -117 57 -124 -27 -27 -7 -25 34 3 50 35 56 45 21 36
-21 -5 -31 5 -89 96 -36 57 -64 104 -62 106 1 2 56 -36 121 -83 65 -47 120
-82 121 -78 2 5 -15 69 -37 143 -21 74 -38 136 -36 137 2 2 10 -7 19 -20 9
-14 44 -57 77 -96 52 -60 60 -74 50 -86 -24 -28 -1 -27 39 1 45 32 52 47 19
40 -19 -4 -37 12 -106 95 -61 73 -81 104 -73 112 6 6 11 15 11 19 0 15 -19 8
-46 -16z"/>
<path d="M4055 4780 c5 -15 -14 -43 -80 -119 -71 -82 -89 -98 -108 -94 -27 7
-24 4 76 -82 l68 -58 27 27 27 27 -35 -6 c-30 -5 -41 0 -74 28 l-40 34 88 101
c76 88 90 100 107 92 31 -17 23 7 -13 40 -39 35 -52 38 -43 10z"/>
<path d="M863 4587 c-32 -34 -66 -71 -74 -81 -13 -17 -12 -18 9 -11 20 6 37
-6 115 -82 72 -69 92 -93 90 -113 -2 -20 11 -11 79 57 l81 81 -20 26 c-24 30
-34 25 -27 -13 4 -21 -3 -34 -35 -65 l-40 -39 -43 38 c-24 21 -45 43 -47 48
-6 16 42 57 61 51 27 -8 22 9 -13 42 l-32 29 6 -25 c5 -18 0 -32 -20 -52 l-27
-28 -43 42 -43 42 42 43 c33 33 45 40 59 32 27 -14 30 4 4 23 -21 16 -23 15
-82 -45z"/>
<path d="M4310 4552 c0 -4 5 -13 10 -18 16 -16 -190 -197 -207 -182 -30 25
-24 -5 7 -37 40 -41 48 -43 44 -12 -4 30 184 201 204 185 7 -6 15 -8 19 -4 4
3 -9 22 -27 41 -33 34 -50 43 -50 27z"/>
<path d="M4453 4358 c-30 -14 -29 -28 1 -28 16 0 32 -11 45 -28 l20 -29 -111
-76 c-105 -72 -113 -76 -130 -60 -32 29 -28 8 8 -45 34 -51 66 -74 43 -31 -8
17 -8 24 3 34 17 17 188 136 203 141 6 3 19 -9 29 -26 14 -25 15 -34 5 -46 -6
-8 -9 -17 -6 -20 6 -7 47 18 47 29 0 8 -129 198 -133 196 -1 0 -12 -5 -24 -11z"/>
<path d="M629 4303 c-31 -35 -79 -109 -79 -123 0 -7 6 -6 18 1 15 9 35 -1 125
-62 92 -64 106 -77 102 -96 -8 -36 8 -27 39 22 27 44 32 71 6 40 -10 -13 -18
-11 -59 17 -25 17 -48 33 -50 35 -2 1 4 12 15 24 17 19 26 21 96 16 72 -6 78
-5 93 16 18 26 20 41 3 30 -7 -4 -48 -8 -90 -8 l-78 0 0 33 c0 75 -91 110
-141 55z m81 -18 c39 -20 48 -58 25 -102 -18 -33 -19 -33 -44 -16 -14 9 -41
26 -58 37 -18 12 -33 24 -33 28 0 14 52 68 66 68 8 0 28 -7 44 -15z"/>
<path d="M1557 4196 c-25 -26 -21 -45 18 -82 129 -121 657 -162 914 -70 75 27
404 20 831 -19 181 -17 206 -14 268 32 38 28 41 52 10 80 -58 53 -46 52 -569
46 -329 -4 -529 -2 -624 6 -77 6 -295 14 -485 18 -319 6 -347 5 -363 -11z
m868 -25 c106 -11 589 -12 860 -2 105 4 205 3 223 -2 18 -4 47 -22 65 -38 l32
-29 -35 -30 c-19 -16 -48 -32 -65 -35 -16 -4 -109 1 -205 9 -514 45 -721 45
-875 1 -93 -26 -113 -28 -290 -29 -205 -1 -301 11 -426 50 -88 28 -157 79
-145 109 6 17 24 18 389 11 210 -3 423 -10 472 -15z"/>
<path d="M4665 4059 c4 -6 -18 -49 -49 -95 -48 -72 -64 -88 -104 -105 -44 -19
-47 -19 -59 -3 -25 34 -24 5 1 -45 27 -52 42 -67 33 -31 -4 17 4 25 44 45 53
27 152 34 218 15 19 -5 36 -8 38 -6 2 2 -4 20 -13 40 -19 38 -40 50 -29 16 6
-19 2 -20 -76 -20 l-81 0 24 33 c13 17 34 47 47 65 19 27 26 31 37 21 8 -7 17
-9 20 -6 8 8 -35 87 -47 87 -6 0 -7 -5 -4 -11z"/>
<path d="M466 4019 c-10 -6 -34 -44 -52 -85 -38 -81 -44 -108 -18 -82 14 14
26 11 135 -40 106 -50 119 -59 119 -82 1 -20 7 -13 31 34 17 32 27 61 23 65
-4 3 -8 2 -11 -4 -14 -38 -21 -40 -67 -18 l-45 22 14 35 c18 43 19 76 3 111
-21 46 -89 68 -132 44z m95 -50 c21 -15 29 -29 29 -50 0 -25 -12 -62 -26 -78
-1 -2 -34 11 -73 29 -67 31 -69 33 -60 59 24 63 76 79 130 40z"/>
<path d="M3010 3880 c-63 -67 -93 -74 -305 -66 -220 9 -426 21 -759 47 -301
23 -322 21 -381 -41 l-29 -30 29 -30 c16 -16 48 -37 72 -46 40 -15 60 -15 285
0 395 27 592 36 799 38 181 1 197 0 236 -21 24 -12 50 -34 60 -49 9 -15 22
-32 29 -37 12 -11 560 18 572 30 12 12 -12 15 -179 26 -95 6 -175 12 -177 14
-2 1 68 6 155 9 170 7 203 11 203 25 0 5 -62 12 -137 16 -227 11 -241 20 -43
29 96 4 177 9 179 12 15 14 -37 22 -186 29 -90 4 -162 10 -159 12 3 3 80 9
172 14 156 8 185 12 173 24 -5 4 -511 45 -549 45 -8 -1 -35 -23 -60 -50z m290
15 c172 -14 171 -15 -14 -24 -90 -4 -131 -10 -134 -18 -5 -18 8 -21 153 -29
123 -8 127 -9 65 -15 -36 -4 -97 -7 -137 -8 -64 -1 -95 -12 -79 -28 3 -3 69
-10 148 -15 155 -10 192 -18 82 -18 -123 0 -234 -12 -234 -25 0 -14 85 -25
186 -25 138 0 88 -16 -86 -27 l-185 -11 -34 39 c-18 22 -52 49 -75 61 -40 20
-49 21 -321 15 -154 -4 -379 -13 -500 -22 -427 -29 -467 -30 -500 -12 -79 44
-82 70 -11 108 l44 23 298 -22 c472 -35 598 -42 786 -43 168 -1 178 0 220 22
23 14 52 39 63 56 24 38 25 38 265 18z"/>
<path d="M426 3541 c-51 -153 -86 -407 -86 -626 0 -231 27 -424 91 -641 18
-62 24 -71 41 -66 23 6 23 7 -21 174 -91 349 -90 715 5 1090 13 53 24 99 24
101 0 3 -9 7 -20 10 -16 4 -22 -4 -34 -42z"/>
<path d="M4701 3581 c-12 -8 -10 -26 12 -118 46 -190 58 -282 64 -483 4 -151
2 -225 -12 -330 -14 -115 -67 -356 -90 -412 -4 -11 0 -20 14 -28 26 -13 30 -4
71 155 48 188 64 318 64 545 1 242 -17 384 -75 603 -22 79 -24 83 -48 68z"/>
<path d="M1345 3331 c-26 -17 -38 -18 -90 -9 -82 13 -188 4 -260 -22 -80 -30
-165 -114 -185 -184 -29 -103 -8 -180 56 -211 73 -34 152 4 198 97 26 51 32
91 20 122 -11 30 -19 16 -16 -28 7 -85 -73 -186 -147 -186 -60 0 -86 27 -85
87 1 102 92 231 199 283 41 20 66 24 140 24 130 1 135 -3 87 -61 -21 -27 -50
-68 -64 -93 -30 -53 -93 -208 -115 -283 -41 -140 -147 -274 -236 -298 -95 -25
-167 12 -167 86 0 62 45 95 52 38 2 -22 8 -28 28 -28 20 0 26 6 28 28 8 69
-80 81 -113 16 -35 -66 -7 -137 62 -160 85 -28 195 14 287 111 68 71 93 122
160 318 71 208 118 302 153 302 29 0 81 -67 88 -113 12 -81 -34 -191 -94 -221
-22 -12 -35 -13 -58 -4 -39 15 -86 3 -81 -20 3 -14 13 -17 51 -15 63 4 69 -12
55 -149 -9 -85 -8 -110 3 -134 32 -66 123 -69 166 -5 13 19 23 41 22 50 0 12
-2 11 -9 -4 -15 -37 -57 -68 -83 -61 -35 8 -47 48 -46 146 1 59 -4 97 -15 124
-9 22 -15 40 -14 41 2 1 24 13 49 28 87 50 139 137 124 207 -10 43 -59 106
-105 132 -22 13 -40 26 -40 29 0 4 15 14 33 23 24 11 27 16 12 16 -11 0 -33
-9 -50 -19z"/>
<path d="M2233 3133 l-30 -88 -42 -3 c-50 -4 -55 -22 -6 -22 19 0 35 -1 35 -3
0 -1 -20 -62 -45 -134 -59 -173 -64 -204 -36 -232 33 -33 68 -27 113 19 38 41
47 60 28 60 -5 0 -10 -4 -10 -9 0 -19 -52 -71 -71 -71 -34 0 -32 27 11 153 23
67 49 143 58 170 15 45 17 47 54 47 21 0 38 5 38 10 0 6 -16 10 -35 10 l-34 0
29 81 c17 44 30 85 30 90 0 5 -13 9 -28 9 -27 0 -30 -5 -59 -87z"/>
<path d="M4274 3133 l-31 -88 -42 -3 c-50 -4 -55 -22 -6 -22 19 0 35 -1 35 -3
0 -2 -20 -62 -45 -133 -58 -169 -64 -205 -36 -233 33 -33 68 -27 113 19 38 41
47 60 28 60 -5 0 -10 -4 -10 -9 0 -19 -52 -71 -71 -71 -34 0 -32 27 11 153 23
67 49 143 58 170 15 45 17 47 54 47 21 0 38 5 38 10 0 6 -16 10 -35 10 l-34 0
29 81 c17 44 30 85 30 90 0 5 -12 9 -28 9 -26 0 -30 -6 -58 -87z"/>
<path d="M1649 2987 c-107 -65 -164 -221 -113 -308 38 -64 101 -64 166 0 56
57 46 71 -12 17 -52 -49 -78 -56 -105 -29 -14 13 -16 28 -12 65 4 27 9 53 12
57 3 5 34 19 68 30 83 28 129 73 129 127 0 65 -63 85 -133 41z m83 -14 c8 -32
-12 -81 -43 -107 -30 -26 -75 -43 -85 -33 -3 3 6 30 21 61 37 78 96 122 107
79z"/>
<path d="M1912 2993 c-36 -17 -62 -58 -62 -96 0 -26 40 -86 84 -126 52 -48 16
-121 -59 -121 -55 0 -83 58 -54 112 14 25 6 33 -20 19 -45 -25 -39 -100 12
-132 76 -48 182 1 194 88 5 38 2 44 -51 102 -61 66 -70 97 -36 131 39 39 120
18 120 -31 0 -22 -11 -24 -28 -7 -8 8 -15 8 -27 -2 -23 -19 -15 -54 13 -58 59
-9 85 78 36 117 -32 25 -77 27 -122 4z"/>
<path d="M2442 2980 c-85 -62 -131 -162 -118 -258 12 -90 76 -118 139 -62 38
33 47 36 47 17 0 -21 34 -47 59 -47 26 0 81 54 81 78 0 11 -11 3 -31 -21 -34
-41 -59 -48 -59 -16 0 17 75 267 97 327 4 8 -5 12 -25 12 -22 0 -32 -6 -37
-20 l-6 -20 -26 20 c-36 28 -73 25 -121 -10z m108 -5 c42 -51 -42 -283 -115
-317 -56 -25 -70 32 -34 148 25 82 39 111 75 153 28 34 55 39 74 16z"/>
<path d="M2722 2987 c-12 -13 -22 -30 -22 -38 0 -8 10 -2 23 15 15 18 28 26
36 22 15 -10 10 -35 -30 -138 -35 -93 -38 -154 -8 -192 29 -36 64 -34 103 8
l32 33 17 -28 c30 -54 82 -51 117 7 30 47 19 54 -15 10 -28 -37 -52 -46 -60
-23 -3 6 20 86 50 177 30 90 55 166 55 167 0 2 -13 3 -28 3 -27 0 -31 -5 -67
-102 -70 -190 -125 -276 -163 -251 -23 15 -18 59 18 150 40 100 47 146 26 178
-21 32 -56 32 -84 2z"/>
<path d="M3105 2985 c-14 -13 -25 -30 -25 -37 0 -7 12 -1 25 15 13 15 29 27
35 27 19 0 10 -42 -45 -196 -30 -85 -55 -157 -55 -160 0 -3 14 -4 31 -2 30 3
33 8 64 94 55 155 127 264 175 264 38 0 62 -46 41 -79 -7 -10 -13 -11 -30 -1
-29 15 -53 -4 -49 -39 5 -40 48 -41 82 -1 32 39 35 91 6 120 -31 31 -65 25
-115 -21 -36 -34 -45 -38 -45 -22 0 28 -28 63 -51 63 -11 0 -31 -11 -44 -25z"/>
<path d="M3482 2980 c-85 -62 -131 -162 -118 -258 12 -90 76 -118 139 -62 38
33 47 36 47 17 0 -21 34 -47 59 -47 26 0 81 54 81 78 0 11 -11 3 -31 -21 -34
-41 -59 -48 -59 -16 0 17 75 267 97 327 4 8 -5 12 -25 12 -22 0 -32 -6 -37
-20 l-6 -20 -26 20 c-36 28 -73 25 -121 -10z m108 -5 c42 -51 -42 -283 -115
-317 -56 -25 -70 32 -34 148 25 82 39 111 75 153 28 34 55 39 74 16z"/>
<path d="M3772 2987 c-12 -13 -22 -30 -22 -38 0 -8 10 -3 25 14 14 15 30 27
35 27 20 0 9 -43 -45 -185 -30 -80 -55 -152 -55 -161 0 -11 8 -14 27 -12 23 3
31 14 65 98 67 161 151 272 194 256 21 -8 15 -30 -37 -151 -57 -134 -51 -205
18 -205 25 0 103 68 103 90 0 21 -19 9 -40 -24 -23 -38 -56 -54 -73 -37 -11
11 -8 17 69 201 27 64 30 112 8 134 -31 32 -89 12 -142 -48 -17 -20 -33 -36
-35 -36 -2 0 -3 15 -3 34 0 64 -50 88 -92 43z"/>
<path d="M1416 2402 c-23 -46 -30 -52 -59 -53 -17 0 -40 -4 -50 -7 -15 -7 -13
-12 18 -42 35 -34 36 -37 30 -88 l-7 -53 48 24 47 24 44 -25 c24 -13 46 -23
48 -21 2 3 -1 26 -7 54 l-10 49 39 37 40 37 -30 6 c-16 3 -39 6 -51 6 -16 0
-28 13 -48 52 l-25 53 -27 -53z"/>
<path d="M1940 2402 c-24 -45 -28 -47 -79 -56 l-55 -8 41 -38 c41 -37 41 -38
32 -85 -5 -27 -7 -50 -5 -53 3 -2 24 8 48 22 l44 25 39 -24 c22 -13 44 -25 48
-25 4 0 5 23 1 51 -7 49 -5 52 31 89 l38 39 -39 6 c-22 3 -46 7 -54 8 -8 1
-26 23 -40 49 l-26 47 -24 -47z"/>
<path d="M2986 2402 c-23 -46 -30 -52 -59 -53 -17 0 -40 -4 -50 -7 -15 -7 -13
-12 18 -42 35 -34 36 -37 30 -88 l-7 -53 48 24 47 24 44 -25 c24 -13 46 -23
48 -21 2 2 -1 27 -6 54 -9 50 -9 50 30 87 l40 37 -52 8 c-49 8 -53 11 -79 57
l-26 49 -26 -51z"/>
<path d="M3512 2405 c-23 -48 -25 -50 -86 -60 l-39 -6 37 -38 c35 -36 36 -38
27 -86 -5 -28 -8 -52 -6 -54 2 -2 23 8 47 22 l43 25 48 -24 48 -25 -7 51 c-7
49 -5 53 30 89 37 38 37 38 14 45 -13 3 -35 6 -50 6 -23 0 -32 8 -53 50 -14
28 -27 50 -28 50 -2 0 -13 -20 -25 -45z"/>
<path d="M2462 2395 c-18 -37 -27 -45 -49 -45 -16 0 -38 -3 -51 -6 -23 -7 -23
-7 13 -44 36 -37 36 -38 27 -89 -5 -28 -8 -51 -6 -51 2 0 24 10 49 22 l45 22
46 -22 46 -23 -6 53 c-7 52 -6 54 29 88 31 30 33 35 18 42 -10 3 -33 7 -51 7
-28 1 -35 7 -54 46 -12 25 -25 45 -28 45 -3 0 -16 -20 -28 -45z"/>
<path d="M659 2095 c-1 -5 -1 -17 0 -25 1 -21 -238 -135 -253 -120 -24 24 -24
6 1 -45 30 -60 46 -72 37 -26 -6 27 -2 31 45 55 27 14 53 26 55 26 12 0 45
-79 36 -85 -6 -3 -10 -13 -10 -20 0 -12 6 -12 35 2 36 17 46 33 21 33 -13 0
-56 57 -56 74 0 5 94 56 104 56 3 0 17 -23 31 -51 21 -40 24 -54 14 -65 -6 -8
-9 -17 -6 -20 7 -7 47 14 46 24 -1 14 -98 197 -100 187z"/>
<path d="M4478 2053 c-47 -54 -52 -121 -12 -152 37 -29 51 -27 127 19 70 42
86 46 118 30 23 -13 25 -50 4 -89 -16 -32 -39 -44 -66 -36 -28 9 -23 -14 6
-27 30 -14 48 -1 76 53 28 56 25 103 -8 129 -36 28 -71 21 -139 -25 -73 -51
-124 -45 -124 15 0 38 27 70 58 70 26 1 26 1 8 15 -25 19 -30 19 -48 -2z"/>
<path d="M2268 1878 c17 -17 17 -214 0 -221 -7 -3 24 -6 68 -6 74 -1 82 1 87
19 6 24 -8 37 -17 15 -4 -10 -20 -15 -51 -15 l-45 0 0 45 c0 43 1 45 29 45 16
0 32 -6 34 -12 3 -7 5 3 5 22 0 19 -2 29 -5 23 -2 -7 -18 -13 -34 -13 -28 0
-29 2 -29 49 l0 49 43 -5 c23 -4 45 -11 49 -17 5 -6 8 -1 8 12 0 21 -4 22 -77
22 -60 0 -74 -3 -65 -12z"/>
<path d="M2503 1880 c-30 -12 -46 -45 -34 -69 6 -11 33 -33 61 -50 38 -24 50
-37 50 -56 0 -48 -76 -57 -98 -12 -10 21 -11 21 -11 -5 -1 -23 4 -28 34 -34
101 -19 141 77 52 122 -67 34 -87 73 -48 94 30 15 48 12 71 -12 20 -22 20 -22
20 -1 0 32 -47 43 -97 23z"/>
<path d="M2633 1875 c-3 -9 -2 -19 2 -23 4 -4 10 -1 12 6 3 6 18 12 34 12 l29
0 0 -100 c0 -95 -1 -101 -22 -110 -18 -7 -9 -9 37 -9 46 0 55 2 38 9 -22 9
-23 15 -23 110 l0 100 29 0 c20 0 31 -6 34 -17 3 -11 5 -7 6 10 l1 27 -85 0
c-68 0 -87 -3 -92 -15z"/>
<path d="M4336 1796 c-31 -41 -32 -49 -8 -42 14 5 21 -7 39 -76 12 -46 21 -84
19 -85 -1 -2 -26 14 -55 34 -38 27 -51 42 -48 55 9 34 -11 28 -37 -12 -31 -47
-34 -65 -7 -49 16 10 34 1 125 -62 92 -64 106 -77 101 -96 -8 -34 7 -27 38 18
30 44 37 73 10 47 -15 -16 -18 -16 -47 4 -40 27 -56 47 -56 71 0 18 6 18 93
12 l92 -7 18 31 c20 35 19 36 -15 19 -16 -9 -52 -11 -113 -8 l-89 5 -17 68
c-9 37 -15 77 -12 87 8 29 -1 25 -31 -14z"/>
<path d="M724 1747 c-115 -46 -156 -155 -88 -237 49 -58 139 -60 213 -5 90 65
96 168 14 229 -31 23 -98 30 -139 13z m141 -42 c48 -48 26 -122 -51 -174 -64
-42 -108 -49 -142 -24 -72 54 -43 151 61 202 57 28 102 27 132 -4z"/>
<path d="M2854 1679 c-8 -14 11 -33 25 -25 6 4 11 14 11 22 0 16 -26 19 -36 3z"/>
<path d="M4109 1504 c-32 -35 -33 -36 -9 -31 21 6 37 -5 108 -76 45 -45 82
-85 82 -89 0 -4 -12 -3 -27 3 -16 6 -84 24 -152 40 l-124 30 -23 -22 c-28 -27
-32 -44 -6 -30 16 8 34 -5 111 -83 81 -81 92 -97 86 -117 -7 -22 -4 -21 29 10
39 38 48 59 16 39 -19 -12 -27 -5 -99 72 -43 47 -78 86 -77 86 0 1 62 -14 136
-32 130 -33 180 -36 180 -12 0 6 -45 57 -101 113 -59 61 -96 106 -90 109 13 8
15 26 3 26 -4 0 -24 -16 -43 -36z"/>
<path d="M2358 1523 c128 -2 335 -2 460 0 125 1 20 2 -233 2 -253 0 -355 -1
-227 -2z"/>
<path d="M975 1446 c-123 -55 -141 -218 -30 -270 100 -48 235 46 235 162 0 92
-110 150 -205 108z m144 -32 c40 -34 41 -75 2 -135 -56 -90 -151 -120 -198
-64 -45 52 -16 134 70 196 49 36 86 37 126 3z"/>
<path d="M2610 1390 c-24 -24 -25 -38 -4 -68 14 -21 14 -24 -5 -48 -12 -15
-21 -35 -21 -45 0 -23 46 -59 75 -59 29 0 75 36 75 59 0 10 -11 28 -25 41
l-24 23 19 25 c26 32 25 57 -2 76 -31 22 -64 20 -88 -4z m74 -6 c21 -20 20
-37 -3 -65 l-18 -23 -27 27 c-14 14 -26 30 -26 36 0 14 29 41 45 41 7 0 21 -7
29 -16z m-6 -120 c50 -35 8 -103 -44 -69 -13 8 -24 24 -24 34 0 51 26 64 68
35z"/>
<path d="M2278 1344 c-33 -17 -37 -29 -8 -21 19 5 20 0 20 -68 0 -68 -2 -74
-22 -78 -13 -2 4 -4 37 -4 33 0 50 2 38 4 -22 4 -23 9 -23 94 0 49 -3 89 -7
89 -5 -1 -20 -8 -35 -16z"/>
<path d="M2434 1350 c-27 -11 -48 -62 -40 -95 9 -33 48 -52 78 -37 l23 11 -25
0 c-35 1 -50 19 -50 57 0 34 21 64 45 64 22 0 45 -42 45 -83 0 -49 -20 -88
-67 -126 -44 -36 -32 -41 18 -8 115 76 91 265 -27 217z"/>
<path d="M2778 1335 c-6 -27 6 -34 16 -10 7 19 96 21 96 3 0 -7 -18 -53 -40
-103 -22 -49 -40 -90 -40 -92 0 -2 7 -3 15 -3 8 0 15 1 15 3 0 2 18 54 40 115
l40 112 -69 0 c-65 0 -69 -1 -73 -25z"/>
<path d="M1310 1252 c0 -4 5 -13 11 -19 8 -8 -10 -42 -63 -122 -63 -96 -76
-110 -95 -106 -39 9 -25 -9 44 -54 67 -44 120 -59 167 -47 59 15 126 103 126
166 0 52 -27 88 -106 140 -79 52 -84 55 -84 42z m93 -70 c42 -28 56 -53 57
-97 0 -84 -81 -172 -149 -161 -38 6 -79 30 -87 51 -5 13 132 225 145 225 3 0
18 -8 34 -18z"/>
<path d="M3807 1233 c-39 -28 -49 -48 -19 -39 14 5 36 -18 97 -100 68 -92 77
-109 67 -125 -17 -26 -5 -24 40 7 40 28 51 49 19 39 -15 -4 -34 15 -96 101
-67 92 -77 109 -67 125 17 26 3 24 -41 -8z"/>
<path d="M3530 1067 c-64 -36 -71 -42 -49 -45 21 -2 35 -22 88 -119 52 -99 60
-118 47 -125 -9 -5 -16 -13 -16 -18 0 -6 25 2 55 17 57 28 73 48 31 37 -20 -5
-27 1 -50 42 -26 46 -26 49 -9 62 24 17 54 9 114 -33 43 -30 53 -33 74 -23 28
12 33 28 10 28 -8 0 -43 15 -79 34 -47 25 -61 37 -55 47 18 29 10 89 -16 114
-33 34 -58 31 -145 -18z m120 -9 c29 -32 27 -81 -6 -107 -15 -12 -32 -21 -38
-21 -6 0 -25 27 -43 60 l-32 60 27 14 c38 21 68 19 92 -6z"/>
<path d="M1815 825 c-62 -78 -105 -125 -119 -127 -15 -3 -9 -8 26 -20 48 -17
69 -14 42 6 -14 10 -13 15 6 38 l20 27 60 -21 c57 -19 60 -21 60 -53 0 -27 -4
-34 -22 -38 -22 -3 -22 -4 5 -15 15 -7 40 -15 55 -19 24 -6 26 -5 13 10 -9 12
-15 62 -19 171 -3 113 -8 156 -18 160 -7 3 -52 -46 -109 -119z m95 -9 l0 -84
-50 16 c-33 11 -49 20 -46 29 6 15 87 123 92 123 2 0 4 -38 4 -84z"/>
<path d="M3171 926 c-62 -21 -92 -46 -54 -42 14 1 26 -23 59 -124 37 -111 39
-126 26 -137 -29 -23 -6 -23 66 1 89 29 115 46 136 89 32 69 9 169 -49 215
-36 29 -99 28 -184 -2z m137 -10 c56 -29 92 -132 67 -194 -17 -41 -43 -61 -91
-72 l-31 -7 -38 116 c-21 64 -40 122 -42 129 -6 14 50 41 85 42 13 0 35 -6 50
-14z"/>
<path d="M2150 875 c0 -4 6 -13 14 -19 12 -9 11 -30 -5 -136 -10 -69 -18 -128
-18 -132 -1 -5 -11 -8 -23 -9 -22 0 -22 -1 -3 -9 11 -5 35 -9 54 -9 32 -1 33
0 17 12 -17 13 -18 20 -7 98 7 46 15 99 18 117 l5 33 23 -53 c64 -155 102
-228 118 -234 10 -3 20 -4 22 -2 2 1 10 57 19 123 21 155 23 165 41 165 23 0
18 17 -7 24 -35 9 -68 7 -68 -4 0 -5 7 -10 15 -10 8 0 15 -7 15 -15 0 -23 -31
-230 -36 -234 -2 -2 -7 5 -10 15 -12 33 -104 248 -112 261 -9 14 -72 30 -72
18z"/>
<path d="M2593 843 c-54 -4 -69 -16 -33 -26 18 -5 20 -14 20 -105 0 -55 3
-114 6 -131 6 -27 3 -33 -15 -38 -11 -3 -21 -9 -21 -14 0 -15 161 1 200 20 68
32 100 146 62 220 -34 68 -84 85 -219 74z m151 -41 c44 -40 60 -136 31 -192
-22 -43 -53 -60 -107 -60 l-48 0 0 83 c0 45 -3 105 -6 134 -6 44 -4 52 12 56
32 9 97 -3 118 -21z"/>
</g>
</svg>
